<?xml version="1.0" encoding="UTF-8" standalone="no"?>
<!DOCTYPE svg PUBLIC "-//W3C//DTD SVG 1.1//EN"
 "http://www.w3.org/Graphics/SVG/1.1/DTD/svg11.dtd">
<!-- Generated by graphviz version 11.0.0 (20240428.1522)
 -->
<!-- Pages: 1 -->
<svg width="83pt" height="222pt"
 viewBox="0.00 0.00 82.60 221.93" xmlns="http://www.w3.org/2000/svg" xmlns:xlink="http://www.w3.org/1999/xlink">
<g id="graph0" class="graph" transform="scale(1 1) rotate(0) translate(4 217.93)">
<polygon fill="white" stroke="none" points="-4,4 -4,-217.93 78.6,-217.93 78.6,4 -4,4"/>
<!-- A -->
<g id="node1" class="node">
<title>A</title>
<polygon fill="lightgray" stroke="black" points="25.67,-213.93 2.92,-213.93 2.92,-194.68 25.67,-194.68 25.67,-213.93"/>
<text text-anchor="middle" x="14.3" y="-201.38" font-family="Times New Roman,serif" font-size="9.00">A</text>
</g>
<!-- A XOR B -->
<g id="node3" class="node">
<title>A XOR B</title>
<ellipse fill="lightblue" stroke="black" cx="37.3" cy="-37.3" rx="37.3" ry="37.3"/>
<text text-anchor="middle" x="37.3" y="-34.37" font-family="Times New Roman,serif" font-size="9.00">A XOR B</text>
</g>
<!-- A&#45;&gt;A XOR B -->
<g id="edge5" class="edge">
<title>A&#45;&gt;A XOR B</title>
<path fill="none" stroke="red" stroke-width="0.4" d="M11.42,-194.26C6.53,-177.55 -2.27,-140.81 4.3,-110.6 6.54,-100.29 10.39,-89.68 14.69,-79.88"/>
<polygon fill="red" stroke="red" stroke-width="0.4" points="17.8,-81.48 18.83,-70.93 11.45,-78.53 17.8,-81.48"/>
</g>
<!-- 1017 -->
<g id="node4" class="node">
<title>1017</title>
<ellipse fill="white" stroke="black" cx="37.3" cy="-134.64" rx="24.04" ry="24.04"/>
<text text-anchor="middle" x="37.3" y="-131.72" font-family="Times New Roman,serif" font-size="9.00">1017</text>
</g>
<!-- A&#45;&gt;1017 -->
<g id="edge2" class="edge">
<title>A&#45;&gt;1017</title>
<path fill="none" stroke="green" stroke-width="0.9" d="M17.31,-194.46C19.59,-187.75 22.88,-178.06 26.14,-168.49"/>
<polygon fill="green" stroke="green" stroke-width="0.9" points="29.4,-169.77 29.3,-159.17 22.77,-167.51 29.4,-169.77"/>
</g>
<!-- B -->
<g id="node2" class="node">
<title>B</title>
<polygon fill="lightgray" stroke="black" points="71.3,-213.93 49.3,-213.93 49.3,-194.68 71.3,-194.68 71.3,-213.93"/>
<text text-anchor="middle" x="60.3" y="-201.38" font-family="Times New Roman,serif" font-size="9.00">B</text>
</g>
<!-- B&#45;&gt;A XOR B -->
<g id="edge1" class="edge">
<title>B&#45;&gt;A XOR B</title>
<path fill="none" stroke="green" stroke-width="0.49" d="M63.18,-194.26C68.07,-177.55 76.87,-140.81 70.3,-110.6 68.06,-100.29 64.21,-89.68 59.91,-79.88"/>
<polygon fill="green" stroke="green" stroke-width="0.49" points="63.2,-78.65 55.82,-71.05 56.85,-81.6 63.2,-78.65"/>
</g>
<!-- B&#45;&gt;1017 -->
<g id="edge4" class="edge">
<title>B&#45;&gt;1017</title>
<path fill="none" stroke="red" stroke-width="0.33" d="M57.29,-194.46C54.94,-187.53 51.51,-177.44 48.15,-167.56"/>
<polygon fill="red" stroke="red" stroke-width="0.33" points="51.55,-166.69 45.02,-158.35 44.92,-168.95 51.55,-166.69"/>
</g>
<!-- 1017&#45;&gt;A XOR B -->
<g id="edge3" class="edge">
<title>1017&#45;&gt;A XOR B</title>
<path fill="none" stroke="green" stroke-width="1.29" d="M37.3,-110.56C37.3,-103.3 37.3,-94.98 37.3,-86.63"/>
<polygon fill="green" stroke="green" stroke-width="1.29" points="40.8,-86.88 37.3,-76.88 33.8,-86.88 40.8,-86.88"/>
</g>
</g>
</svg>
